<svg width="120" height="36" viewBox="0 0 120 36" fill="none" xmlns="http://www.w3.org/2000/svg">
  <path d="M20.5 7C20.5 5.5 20.7 4.2 19.8 3C19.1 2 17.9 1.4 16.7 1.4C14.6 1.4 12.8 2.8 12.8 5C12.8 7 14.2 8.2 16 9C17.8 9.8 20 10.4 22 11.2V7H20.5Z" fill="currentColor"/>
  <path d="M89.5 25.8C87.3 27.6 84.1 28.6 81.3 28.6C76.7 28.6 72.9 26.2 70.9 22.2L70.5 21.4H83.7L84.1 20.6C84.9 18.8 85.3 16.8 85.3 14.8C85.3 8.2 80.1 3 73.5 3C66.9 3 61.7 8.2 61.7 14.8C61.7 21.4 66.9 26.6 73.5 26.6C77.7 26.6 81.5 24.6 83.9 21.4H70.9C72.9 17.4 76.7 15 81.3 15C84.1 15 87.3 16 89.5 17.8V25.8Z" fill="currentColor"/>
  <path d="M37.7 3C31.1 3 25.9 8.2 25.9 14.8C25.9 21.4 31.1 26.6 37.7 26.6C44.3 26.6 49.5 21.4 49.5 14.8C49.5 8.2 44.3 3 37.7 3ZM37.7 20.6C34.5 20.6 31.9 18 31.9 14.8C31.9 11.6 34.5 9 37.7 9C40.9 9 43.5 11.6 43.5 14.8C43.5 18 40.9 20.6 37.7 20.6Z" fill="currentColor"/>
  <path d="M106.3 3C99.7 3 94.5 8.2 94.5 14.8C94.5 21.4 99.7 26.6 106.3 26.6C112.9 26.6 118.1 21.4 118.1 14.8C118.1 8.2 112.9 3 106.3 3ZM106.3 20.6C103.1 20.6 100.5 18 100.5 14.8C100.5 11.6 103.1 9 106.3 9C109.5 9 112.1 11.6 112.1 14.8C112.1 18 109.5 20.6 106.3 20.6Z" fill="currentColor"/>
  <path d="M16.7 26.6C19.9 26.6 22.9 25.2 24.9 22.8V26H30.9V14.8C30.9 8.2 25.7 3 19.1 3C15.3 3 11.9 4.6 9.7 7.4L14.9 11.2C16.1 9.8 17.5 9 19.1 9C21.7 9 24.1 10.8 24.7 13.2H19.1C12.5 13.2 7.3 18.4 7.3 25C7.3 31.6 12.5 36.8 19.1 36.8C22.9 36.8 26.3 35.2 28.5 32.4L23.3 28.6C22.1 30 20.7 30.8 19.1 30.8C16.5 30.8 14.1 29 13.5 26.6H16.7Z" fill="currentColor"/>
</svg> 