<?xml version="1.0" encoding="UTF-8"?>
<svg width="120" height="36" viewBox="0 0 120 36" fill="none" xmlns="http://www.w3.org/2000/svg">
  <path d="M35.1 26.6c-3.9 2.9-9.5 4.4-14.4 4.4-6.8 0-12.9-2.5-17.5-6.7-.4-.3 0-.8.4-.5 5.3 3.1 11.8 4.9 18.6 4.9 4.6 0 9.6-.9 14.2-2.9.7-.3 1.3.5.7.8z" fill="#191A23"/>
  <path d="M36.9 24.5c-.5-.6-3.3-.3-4.5-.2-.4 0-.4-.3-.1-.5 2.2-1.6 5.8-1.1 6.2-.6.4.5-.1 4.2-2.2 5.9-.3.3-.6.1-.5-.2.5-1.2 1.5-3.9 1.1-4.4z" fill="#191A23"/>
  <path d="M33.1 7.7V5.9c0-.3.2-.5.5-.5h9.2c.3 0 .5.2.5.5v1.6c0 .3-.3.7-.7.1L37.9 13c1.9-.1 4 .2 5.7 1.2.4.2.5.5.5.8v2c0 .3-.3.6-.7.5-2.8-1.5-6.6-1.6-9.7.1-.3.2-.7-.1-.7-.4v-1.9c0-.3 0-.8.3-1.3l5.3-7.6h-4.9c-.3-.1-.6-.3-.6-.7zM12.2 18.2h-2.8c-.3 0-.5-.2-.5-.5V5.9c0-.3.2-.5.5-.5h2.6c.3 0 .5.2.5.4v1.6h.1c.7-1.8 2-2.7 3.7-2.7 1.8 0 2.9.8 3.7 2.7.7-1.8 2.3-2.7 4-2.7 1.2 0 2.5.5 3.3 1.6.9 1.2.7 3 .7 4.6v9.2c0 .3-.2.5-.5.5h-2.8c-.3 0-.5-.2-.5-.5v-7.7c0-.6.1-2.1-.1-2.7-.3-1-.9-1.2-1.8-1.2-.7 0-1.5.5-1.8 1.3s-.2 2.1-.2 2.7v7.7c0 .3-.2.5-.5.5h-2.8c-.3 0-.5-.2-.5-.5v-7.7c0-1.6.3-4-1.8-4-2.1 0-2 2.3-2 4v7.7c-.1.2-.3.5-.6.5zM68.7 5.4c4.2 0 6.5 3.6 6.5 8.2 0 4.4-2.5 7.9-6.5 7.9-4.1 0-6.4-3.6-6.4-8.1-.1-4.5 2.3-8 6.4-8zm0 3c-2.1 0-2.2 2.8-2.2 4.6 0 1.8 0 5.6 2.2 5.6 2.2 0 2.3-3.1 2.3-4.9 0-1.2-.1-2.7-.4-3.8-.3-1-.9-1.5-1.9-1.5zM78.7 18.2h-2.8c-.3 0-.5-.2-.5-.5V5.9c0-.3.2-.5.5-.5h2.6c.2 0 .4.2.5.4v1.6h.1c.8-1.9 1.9-2.8 3.8-2.8 1.3 0 2.5.5 3.3 1.7.7 1.2.7 3.1.7 4.5v9.1c-.3.2-.5.4-.8.4h-2.8c-.3 0-.5-.2-.5-.4v-7.9c0-1.6.2-3.9-1.8-3.9-.7 0-1.3.5-1.6 1.2-.4.9-.4 1.9-.4 2.7v7.7c0 .3-.2.6-.5.6zM92.6 5.4c4.2 0 6.5 3.6 6.5 8.2 0 4.4-2.5 7.9-6.5 7.9-4.1 0-6.4-3.6-6.4-8.1 0-4.5 2.3-8 6.4-8zm0 3c-2.1 0-2.2 2.8-2.2 4.6 0 1.8 0 5.6 2.2 5.6 2.2 0 2.3-3.1 2.3-4.9 0-1.2-.1-2.7-.4-3.8-.3-1-.9-1.5-1.9-1.5zM102.6 18.2h-2.8c-.3 0-.5-.2-.5-.5V5.9c0-.3.2-.5.5-.5h2.6c.2 0 .4.2.5.4v1.6h.1c.8-1.9 1.9-2.8 3.8-2.8 1.3 0 2.5.5 3.3 1.7.7 1.2.7 3.1.7 4.5v9.1c-.3.2-.5.4-.8.4h-2.8c-.3 0-.5-.2-.5-.4v-7.9c0-1.6.2-3.9-1.8-3.9-.7 0-1.3.5-1.6 1.2-.4.9-.4 1.9-.4 2.7v7.7c0 .3-.2.6-.5.6z" fill="#191A23"/>
</svg> 