<?xml version="1.0" encoding="UTF-8"?>
<svg width="120" height="36" viewBox="0 0 120 36" fill="none" xmlns="http://www.w3.org/2000/svg">
  <path fill-rule="evenodd" clip-rule="evenodd" d="M18 8C12.477 8 8 12.477 8 18C8 23.523 12.477 28 18 28C23.523 28 28 23.523 28 18C28 12.477 23.523 8 18 8ZM24.613 14.094C23.244 12.628 21.307 11.75 19.181 11.75C18.818 11.75 18.463 11.778 18.116 11.83C18.448 12.329 19.608 14.094 20.334 16.265C22.819 15.241 24.47 14.279 24.613 14.094ZM20.797 17.341C21.541 19.512 22.117 22.088 22.285 22.924C24.141 21.523 25.438 19.397 25.688 16.973C25.219 16.829 23.378 16.3 21.307 16.541C21.469 16.781 21.623 17.057 21.777 17.341H20.797ZM21.145 23.924C19.902 24.589 18.479 24.922 17 24.922C15.384 24.922 13.877 24.486 12.575 23.708C12.71 23.772 12.837 23.828 12.837 23.828C13.064 23.708 15.649 20.824 18.818 19.415C18.89 19.387 18.962 19.359 19.034 19.331C19.362 20.222 19.654 21.122 19.91 22.013C20.037 22.447 20.157 22.881 20.269 23.307C20.561 23.515 20.853 23.724 21.145 23.924ZM11.575 22.013C11.71 19.331 12.71 17.057 14.283 15.403C14.283 15.403 14.364 15.485 14.445 15.567C14.445 15.567 16.626 18.842 19.473 20.005C19.41 20.142 19.346 20.251 19.283 20.359C15.925 21.941 13.148 24.643 12.921 24.87C12.151 24.036 11.521 23.075 11.575 22.013ZM15.041 14.19C15.041 14.19 17.584 11.995 19.571 11.777C19.517 11.857 19.454 11.929 19.39 12.009C18.627 14.271 17.73 16.989 17.292 17.859C14.877 16.901 13.04 15.312 12.813 15.021C13.444 14.606 14.21 14.19 15.041 14.19ZM11.25 18C11.25 17.419 11.323 16.856 11.452 16.321C11.67 16.603 13.742 18.329 16.238 19.415C16.157 19.587 16.084 19.751 16.003 19.915C12.948 20.897 10.029 21.059 9.742 21.068C10.165 19.778 10.62 18.842 11.25 18Z" fill="#191A23"/>
  <path d="M40.432 23V13.636H42.284V21.494H46.892V23H40.432ZM51.8239 23.17C50.8352 23.17 50.0028 22.9403 49.3267 22.481C48.6553 22.017 48.1506 21.3741 47.8125 20.5523C47.4744 19.7259 47.3054 18.7443 47.3054 17.6074C47.3054 16.4705 47.4744 15.4915 47.8125 14.6705C48.1506 13.8494 48.6553 13.2088 49.3267 12.7486C50.0028 12.2884 50.8352 12.0582 51.8239 12.0582C52.8125 12.0582 53.642 12.2884 54.3125 12.7486C54.9886 13.2088 55.4957 13.8494 55.8338 14.6705C56.1719 15.4915 56.3409 16.4705 56.3409 17.6074C56.3409 18.7443 56.1719 19.7259 55.8338 20.5523C55.4957 21.3741 54.9886 22.017 54.3125 22.481C53.642 22.9403 52.8125 23.17 51.8239 23.17ZM51.8239 21.6364C52.5568 21.6364 53.1506 21.4581 53.6051 21.1016C54.0597 20.7451 54.3892 20.2663 54.5938 19.6648C54.7983 19.0634 54.9006 18.3778 54.9006 17.608C54.9006 16.8381 54.7983 16.1525 54.5938 15.5511C54.3892 14.9496 54.0597 14.4708 53.6051 14.1143C53.1506 13.7578 52.5568 13.5795 51.8239 13.5795C51.0909 13.5795 50.4972 13.7578 50.0426 14.1143C49.5881 14.4708 49.2585 14.9496 49.054 15.5511C48.8494 16.1525 48.7472 16.8381 48.7472 17.608C48.7472 18.3778 48.8494 19.0634 49.054 19.6648C49.2585 20.2663 49.5881 20.7451 50.0426 21.1016C50.4972 21.4581 51.0909 21.6364 51.8239 21.6364ZM58.1832 23V12.1818H59.5469V15.4545H59.6832C59.8026 15.2074 59.9673 14.9375 60.1776 14.6449C60.3878 14.3475 60.6776 14.0918 61.0469 13.8778C61.4162 13.6638 61.9077 13.5568 62.5213 13.5568C63.3139 13.5568 64.0043 13.7585 64.5923 14.1619C65.1804 14.5653 65.6378 15.1364 65.9645 15.875C66.2912 16.6136 66.4545 17.4886 66.4545 18.5C66.4545 19.5227 66.2912 20.4034 65.9645 21.142C65.6378 21.8807 65.1827 22.4518 64.5994 22.8551C64.0162 23.2585 63.3309 23.4602 62.5436 23.4602C61.9413 23.4602 61.4545 23.3533 61.0831 23.1392C60.7118 22.9252 60.4173 22.669 60.1996 22.3707C59.982 22.0724 59.8139 21.7983 59.6946 21.5483H59.5128V23H58.1832ZM59.5355 18.483C59.5355 19.2301 59.6378 19.8864 59.8423 20.4517C60.0469 21.017 60.3503 21.4602 60.7528 21.7812C61.1552 22.1023 61.6605 22.2628 62.2685 22.2628C62.8991 22.2628 63.4173 22.0952 63.8232 21.7599C64.2337 21.4199 64.5355 20.9659 64.7287 20.3977C64.9219 19.8295 65.0185 19.1875 65.0185 18.4716C65.0185 17.767 64.9242 17.1364 64.7358 16.5795C64.5519 16.0227 64.2546 15.5795 63.8437 15.25C63.4375 14.9205 62.9147 14.7557 62.2756 14.7557C61.6562 14.7557 61.1449 14.9148 60.7415 15.233C60.3381 15.5511 60.0355 15.9886 59.8338 16.5455C59.6349 17.0977 59.5355 17.7386 59.5355 18.483ZM72.1832 23.17C71.1946 23.17 70.3622 22.9403 69.6861 22.481C69.0146 22.017 68.5099 21.3741 68.1719 20.5523C67.8338 19.7259 67.6648 18.7443 67.6648 17.6074C67.6648 16.4705 67.8338 15.4915 68.1719 14.6705C68.5099 13.8494 69.0146 13.2088 69.6861 12.7486C70.3622 12.2884 71.1946 12.0582 72.1832 12.0582C73.1719 12.0582 74.0014 12.2884 74.6719 12.7486C75.348 13.2088 75.8551 13.8494 76.1932 14.6705C76.5312 15.4915 76.7003 16.4705 76.7003 17.6074C76.7003 18.7443 76.5312 19.7259 76.1932 20.5523C75.8551 21.3741 75.348 22.017 74.6719 22.481C74.0014 22.9403 73.1719 23.17 72.1832 23.17ZM72.1832 21.6364C72.9162 21.6364 73.5099 21.4581 73.9645 21.1016C74.419 20.7451 74.7486 20.2663 74.9531 19.6648C75.1577 19.0634 75.2599 18.3778 75.2599 17.608C75.2599 16.8381 75.1577 16.1525 74.9531 15.5511C74.7486 14.9496 74.419 14.4708 73.9645 14.1143C73.5099 13.7578 72.9162 13.5795 72.1832 13.5795C71.4503 13.5795 70.8565 13.7578 70.402 14.1143C69.9474 14.4708 69.6179 14.9496 69.4134 15.5511C69.2088 16.1525 69.1065 16.8381 69.1065 17.608C69.1065 18.3778 69.2088 19.0634 69.4134 19.6648C69.6179 20.2663 69.9474 20.7451 70.402 21.1016C70.8565 21.4581 71.4503 21.6364 72.1832 21.6364ZM78.5426 23V12.1818H79.9062V15.4545H80.0426C80.1619 15.2074 80.3267 14.9375 80.5369 14.6449C80.7472 14.3475 81.0369 14.0918 81.4062 13.8778C81.7756 13.6638 82.267 13.5568 82.8807 13.5568C83.6733 13.5568 84.3636 13.7585 84.9517 14.1619C85.5398 14.5653 85.9972 15.1364 86.3239 15.875C86.6506 16.6136 86.8139 17.4886 86.8139 18.5C86.8139 19.5227 86.6506 20.4034 86.3239 21.142C85.9972 21.8807 85.5421 22.4518 84.9588 22.8551C84.3756 23.2585 83.6903 23.4602 82.903 23.4602C82.3007 23.4602 81.8139 23.3533 81.4425 23.1392C81.0711 22.9252 80.7767 22.669 80.5597 22.3707C80.3414 22.0724 80.1733 21.7983 80.0539 21.5483H79.8722V23H78.5426ZM79.8949 18.483C79.8949 19.2301 79.9972 19.8864 80.2017 20.4517C80.4062 21.017 80.7097 21.4602 81.1122 21.7812C81.5146 22.1023 82.0199 22.2628 82.6278 22.2628C83.2585 22.2628 83.7767 22.0952 84.1825 21.7599C84.5931 21.4199 84.8949 20.9659 85.0881 20.3977C85.2812 19.8295 85.3778 19.1875 85.3778 18.4716C85.3778 17.767 85.2835 17.1364 85.0952 16.5795C84.9112 16.0227 84.6139 15.5795 84.2031 15.25C83.7969 14.9205 83.2741 14.7557 82.6349 14.7557C82.0156 14.7557 81.5043 14.9148 81.1009 15.233C80.6974 15.5511 80.3949 15.9886 80.1932 16.5455C79.9943 17.0977 79.8949 17.7386 79.8949 18.483ZM92.5426 23.17C91.554 23.17 90.7216 22.9403 90.0455 22.481C89.374 22.017 88.8693 21.3741 88.5312 20.5523C88.1932 19.7259 88.0242 18.7443 88.0242 17.6074C88.0242 16.4705 88.1932 15.4915 88.5312 14.6705C88.8693 13.8494 89.374 13.2088 90.0455 12.7486C90.7216 12.2884 91.554 12.0582 92.5426 12.0582C93.5312 12.0582 94.3608 12.2884 95.0312 12.7486C95.7074 13.2088 96.2145 13.8494 96.5526 14.6705C96.8906 15.4915 97.0597 16.4705 97.0597 17.6074C97.0597 18.7443 96.8906 19.7259 96.5526 20.5523C96.2145 21.3741 95.7074 22.017 95.0312 22.481C94.3608 22.9403 93.5312 23.17 92.5426 23.17ZM92.5426 21.6364C93.2756 21.6364 93.8693 21.4581 94.3239 21.1016C94.7784 20.7451 95.108 20.2663 95.3125 19.6648C95.517 19.0634 95.6193 18.3778 95.6193 17.608C95.6193 16.8381 95.517 16.1525 95.3125 15.5511C95.108 14.9496 94.7784 14.4708 94.3239 14.1143C93.8693 13.7578 93.2756 13.5795 92.5426 13.5795C91.8097 13.5795 91.2159 13.7578 90.7614 14.1143C90.3068 14.4708 89.9773 14.9496 89.7727 15.5511C89.5682 16.1525 89.4659 16.8381 89.4659 17.608C89.4659 18.3778 89.5682 19.0634 89.7727 19.6648C89.9773 20.2663 90.3068 20.7451 90.7614 21.1016C91.2159 21.4581 91.8097 21.6364 92.5426 21.6364ZM98.902 23V12.1818H100.266V15.4545H100.402C100.521 15.2074 100.686 14.9375 100.896 14.6449C101.106 14.3475 101.396 14.0918 101.765 13.8778C102.135 13.6638 102.626 13.5568 103.24 13.5568C104.032 13.5568 104.723 13.7585 105.311 14.1619C105.899 14.5653 106.356 15.1364 106.683 15.875C107.01 16.6136 107.173 17.4886 107.173 18.5C107.173 19.5227 107.01 20.4034 106.683 21.142C106.356 21.8807 105.901 22.4518 105.318 22.8551C104.735 23.2585 104.049 23.4602 103.262 23.4602C102.66 23.4602 102.173 23.3533 101.802 23.1392C101.43 22.9252 101.136 22.669 100.919 22.3707C100.701 22.0724 100.532 21.7983 100.413 21.5483H100.231V23H98.902ZM100.254 18.483C100.254 19.2301 100.356 19.8864 100.561 20.4517C100.765 21.017 101.069 21.4602 101.471 21.7812C101.874 22.1023 102.379 22.2628 102.987 22.2628C103.618 22.2628 104.136 22.0952 104.542 21.7599C104.952 21.4199 105.254 20.9659 105.447 20.3977C105.64 19.8295 105.737 19.1875 105.737 18.4716C105.737 17.767 105.643 17.1364 105.454 16.5795C105.27 16.0227 104.973 15.5795 104.562 15.25C104.156 14.9205 103.633 14.7557 102.994 14.7557C102.375 14.7557 101.863 14.9148 101.46 15.233C101.057 15.5511 100.754 15.9886 100.552 16.5455C100.353 17.0977 100.254 17.7386 100.254 18.483Z" fill="#191A23"/>
</svg> 