<?xml version="1.0" encoding="UTF-8"?>
<svg width="120" height="36" viewBox="0 0 120 36" fill="none" xmlns="http://www.w3.org/2000/svg">
  <path d="M27.3 17.1c0-5.4-4.4-9.8-9.8-9.8s-9.8 4.4-9.8 9.8c0 5.4 4.4 9.8 9.8 9.8 2.3 0 4.4-.8 6.1-2.1v-5.6h-6.4v2.4h3.9v2.1c-.5.3-1.1.6-1.7.7-.7.2-1.3.3-2 .3-3.3 0-6-2.7-6-6s2.7-6 6-6 6 2.7 6 6v9.8h3.8V17.1z" fill="#191A23"/>
  <path d="M44.4 13.5c-1.8 0-3.3.6-4.4 1.8V7.8h-3.8v18.9h3.8v-1.5c1.1 1.2 2.6 1.8 4.4 1.8 3.8 0 6.9-3.1 6.9-6.9-.1-3.7-3.2-6.6-6.9-6.6zm-.4 10.7c-2.1 0-3.8-1.7-3.8-3.8s1.7-3.8 3.8-3.8 3.8 1.7 3.8 3.8-1.7 3.8-3.8 3.8zM63.3 13.5c-3.8 0-6.9 3.1-6.9 6.9s3.1 6.9 6.9 6.9c3.8 0 6.9-3.1 6.9-6.9s-3.1-6.9-6.9-6.9zm0 10.7c-2.1 0-3.8-1.7-3.8-3.8s1.7-3.8 3.8-3.8 3.8 1.7 3.8 3.8-1.7 3.8-3.8 3.8zM81.7 13.5c-1.8 0-3.3.6-4.4 1.8v-1.5h-3.8v12.9h3.8v-7.2c0-2.1 1.7-3.8 3.8-3.8 2.1 0 3.8 1.7 3.8 3.8v7.2h3.8v-7.2c0-3.8-3.1-6-7-6zM99.3 24.2c-2.1 0-3.8-1.7-3.8-3.8s1.7-3.8 3.8-3.8c1.6 0 2.9 1 3.5 2.4h4c-.8-3.5-3.9-5.5-7.5-5.5-3.8 0-6.9 3.1-6.9 6.9s3.1 6.9 6.9 6.9c3.6 0 6.7-2.1 7.5-5.5h-4c-.6 1.4-1.9 2.4-3.5 2.4z" fill="#191A23"/>
</svg> 