<?xml version="1.0" encoding="UTF-8"?>
<svg width="120" height="36" viewBox="0 0 120 36" fill="none" xmlns="http://www.w3.org/2000/svg">
  <path d="M24.8 8h-13c-1.1 0-2 .9-2 2v13c0 1.1.9 2 2 2h13c1.1 0 2-.9 2-2V10c0-1.1-.9-2-2-2zm-2.3 11.3l-4.2 2.9c-.2.1-.4.2-.6.2-.2 0-.4-.1-.6-.2-.4-.2-.6-.6-.6-1.1V11.9c0-.4.2-.9.6-1.1.4-.2.8-.2 1.2 0l4.2 2.9c.4.2.6.6.6 1.1s-.2.9-.6 1.1v.4z" fill="#191A23"/>
  <path d="M45.4 13.5c-3.8 0-6.9 3.1-6.9 6.9s3.1 6.9 6.9 6.9c3.8 0 6.9-3.1 6.9-6.9s-3.1-6.9-6.9-6.9zm0 10.7c-2.1 0-3.8-1.7-3.8-3.8s1.7-3.8 3.8-3.8 3.8 1.7 3.8 3.8-1.7 3.8-3.8 3.8zM63.8 13.5c-1.8 0-3.3.6-4.4 1.8v-1.5h-3.8v12.9h3.8v-7.2c0-2.1 1.7-3.8 3.8-3.8 2.1 0 3.8 1.7 3.8 3.8v7.2h3.8v-7.2c0-3.8-3.1-6-7-6zM81.4 24.2c-2.1 0-3.8-1.7-3.8-3.8s1.7-3.8 3.8-3.8c1.6 0 2.9 1 3.5 2.4h4c-.8-3.5-3.9-5.5-7.5-5.5-3.8 0-6.9 3.1-6.9 6.9s3.1 6.9 6.9 6.9c3.6 0 6.7-2.1 7.5-5.5h-4c-.6 1.4-1.9 2.4-3.5 2.4z" fill="#191A23"/>
</svg> 